<svg id="Layer_1" data-name="Layer 1" xmlns="http://www.w3.org/2000/svg" viewBox="0 0 42.02 20.48"><defs><style>.cls-1{fill:#00a251;}.cls-2{fill:#fff;}.cls-2,.cls-3,.cls-4{fill-rule:evenodd;}.cls-3{fill:#b8babc;}.cls-4{fill:#8f9194;}</style></defs><title>NESG_logo</title><rect class="cls-1" x="20.02" y="0.2" width="0.53" height="0.54"/><rect class="cls-1" x="20.95" y="0.2" width="0.53" height="0.54"/><rect class="cls-1" x="21.87" y="0.2" width="0.53" height="0.54"/><rect class="cls-1" x="22.8" y="0.2" width="0.53" height="0.54"/><rect class="cls-1" x="20.02" y="1.04" width="0.53" height="0.54"/><rect class="cls-1" x="20.95" y="1.04" width="0.53" height="0.54"/><rect class="cls-1" x="21.87" y="1.04" width="0.53" height="0.54"/><rect class="cls-1" x="22.8" y="1.04" width="0.53" height="0.54"/><rect class="cls-1" x="19.15" y="1.04" width="0.53" height="0.54"/><rect class="cls-1" x="25.57" y="1.04" width="0.53" height="0.54"/><rect class="cls-1" x="26.5" y="1.04" width="0.53" height="0.54"/><rect class="cls-1" x="27.43" y="1.04" width="0.53" height="0.54"/><rect class="cls-1" x="30.3" y="1.04" width="0.53" height="0.54"/><rect class="cls-1" x="31.23" y="1.04" width="0.53" height="0.54"/><rect class="cls-1" x="33.08" y="1.04" width="0.53" height="0.54"/><rect class="cls-1" x="35.91" y="0.2" width="0.53" height="0.54"/><rect class="cls-1" x="36.83" y="0.2" width="0.53" height="0.54"/><rect class="cls-1" x="35.86" y="1.04" width="0.53" height="0.54"/><rect class="cls-1" x="36.78" y="1.04" width="0.53" height="0.54"/><rect class="cls-1" x="37.71" y="1.04" width="0.53" height="0.54"/><rect class="cls-1" x="18.22" y="2.66" width="0.53" height="0.54"/><rect class="cls-1" x="18.22" y="3.65" width="0.53" height="0.54"/><rect class="cls-1" x="18.22" y="4.65" width="0.53" height="0.54"/><rect class="cls-1" x="18.22" y="5.64" width="0.53" height="0.54"/><rect class="cls-1" x="17.19" y="9.4" width="0.53" height="0.54"/><rect class="cls-1" x="17.19" y="10.19" width="0.53" height="0.54"/><rect class="cls-1" x="17.19" y="10.97" width="0.53" height="0.54"/><rect class="cls-1" x="17.19" y="11.75" width="0.53" height="0.54"/><rect class="cls-1" x="17.19" y="12.54" width="0.53" height="0.54"/><rect class="cls-1" x="17.19" y="13.32" width="0.53" height="0.54"/><rect class="cls-1" x="17.19" y="14.11" width="0.53" height="0.54"/><rect class="cls-1" x="17.19" y="14.89" width="0.53" height="0.54"/><rect class="cls-1" x="18.33" y="9.4" width="0.53" height="0.54"/><rect class="cls-1" x="18.33" y="10.19" width="0.53" height="0.54"/><rect class="cls-1" x="18.33" y="10.97" width="0.53" height="0.54"/><rect class="cls-1" x="18.33" y="11.75" width="0.53" height="0.54"/><rect class="cls-1" x="18.33" y="12.54" width="0.53" height="0.54"/><rect class="cls-1" x="18.33" y="13.32" width="0.53" height="0.54"/><rect class="cls-1" x="18.33" y="14.11" width="0.53" height="0.54"/><rect class="cls-1" x="18.33" y="14.89" width="0.53" height="0.54"/><rect class="cls-1" x="18.33" y="8.41" width="0.53" height="0.54"/><rect class="cls-1" x="18.33" y="7.42" width="0.53" height="0.54"/><rect class="cls-1" x="17.19" y="15.52" width="0.53" height="0.54"/><rect class="cls-1" x="18.33" y="15.52" width="0.53" height="0.54"/><rect class="cls-1" x="19.12" y="2.66" width="0.53" height="0.54"/><rect class="cls-1" x="19.12" y="3.65" width="0.53" height="0.54"/><rect class="cls-1" x="19.12" y="4.65" width="0.53" height="0.54"/><rect class="cls-1" x="19.12" y="5.64" width="0.53" height="0.54"/><rect class="cls-1" x="19.22" y="9.4" width="0.53" height="0.54"/><rect class="cls-1" x="19.22" y="10.19" width="0.53" height="0.54"/><rect class="cls-1" x="19.22" y="10.97" width="0.53" height="0.54"/><rect class="cls-1" x="19.22" y="11.75" width="0.53" height="0.54"/><rect class="cls-1" x="19.22" y="12.54" width="0.53" height="0.54"/><rect class="cls-1" x="19.22" y="13.32" width="0.53" height="0.54"/><rect class="cls-1" x="19.22" y="14.11" width="0.53" height="0.54"/><rect class="cls-1" x="19.22" y="14.89" width="0.53" height="0.54"/><rect class="cls-1" x="19.22" y="8.41" width="0.53" height="0.54"/><rect class="cls-1" x="19.22" y="7.42" width="0.53" height="0.54"/><rect class="cls-1" x="19.22" y="15.52" width="0.53" height="0.54"/><rect class="cls-1" x="19.12" y="1.99" width="0.53" height="0.54"/><rect class="cls-1" x="19.22" y="6.64" width="0.53" height="0.54"/><rect class="cls-1" x="20.21" y="1.04" width="0.53" height="0.54"/><rect class="cls-1" x="20.18" y="2.66" width="0.53" height="0.54"/><rect class="cls-1" x="20.18" y="3.65" width="0.53" height="0.54"/><rect class="cls-1" x="20.18" y="4.65" width="0.53" height="0.54"/><rect class="cls-1" x="20.18" y="5.64" width="0.53" height="0.54"/><rect class="cls-1" x="20.28" y="9.4" width="0.53" height="0.54"/><rect class="cls-1" x="20.28" y="10.19" width="0.53" height="0.54"/><rect class="cls-1" x="20.28" y="10.97" width="0.53" height="0.54"/><rect class="cls-1" x="20.28" y="11.75" width="0.53" height="0.54"/><rect class="cls-1" x="20.28" y="12.54" width="0.53" height="0.54"/><rect class="cls-1" x="20.28" y="13.32" width="0.53" height="0.54"/><rect class="cls-1" x="20.28" y="14.11" width="0.53" height="0.54"/><rect class="cls-1" x="20.28" y="14.89" width="0.53" height="0.54"/><rect class="cls-1" x="20.28" y="8.41" width="0.53" height="0.54"/><rect class="cls-1" x="20.28" y="7.42" width="0.53" height="0.54"/><rect class="cls-1" x="20.28" y="15.52" width="0.53" height="0.54"/><rect class="cls-1" x="20.18" y="1.99" width="0.53" height="0.54"/><rect class="cls-1" x="20.28" y="6.64" width="0.53" height="0.54"/><rect class="cls-1" x="21.27" y="1.04" width="0.53" height="0.54"/><rect class="cls-1" x="21.24" y="2.66" width="0.53" height="0.54"/><rect class="cls-1" x="21.24" y="3.65" width="0.53" height="0.54"/><rect class="cls-1" x="21.24" y="4.65" width="0.53" height="0.54"/><rect class="cls-1" x="21.24" y="5.64" width="0.53" height="0.54"/><rect class="cls-1" x="21.34" y="9.4" width="0.53" height="0.54"/><rect class="cls-1" x="21.34" y="10.19" width="0.53" height="0.54"/><rect class="cls-1" x="21.34" y="10.97" width="0.53" height="0.54"/><rect class="cls-1" x="21.34" y="11.75" width="0.53" height="0.54"/><rect class="cls-1" x="21.34" y="12.54" width="0.53" height="0.54"/><rect class="cls-1" x="21.34" y="13.32" width="0.53" height="0.54"/><rect class="cls-1" x="21.34" y="14.11" width="0.53" height="0.54"/><rect class="cls-1" x="21.34" y="14.89" width="0.53" height="0.54"/><rect class="cls-1" x="21.34" y="8.41" width="0.53" height="0.54"/><rect class="cls-1" x="21.34" y="7.42" width="0.53" height="0.54"/><rect class="cls-1" x="21.34" y="15.52" width="0.53" height="0.54"/><rect class="cls-1" x="21.24" y="1.99" width="0.53" height="0.54"/><rect class="cls-1" x="21.34" y="6.64" width="0.53" height="0.54"/><rect class="cls-1" x="22.33" y="1.04" width="0.53" height="0.54"/><rect class="cls-1" x="22.3" y="2.66" width="0.53" height="0.54"/><rect class="cls-1" x="22.3" y="3.65" width="0.53" height="0.54"/><rect class="cls-1" x="22.3" y="4.65" width="0.53" height="0.54"/><rect class="cls-1" x="22.3" y="5.64" width="0.53" height="0.54"/><rect class="cls-1" x="22.4" y="9.4" width="0.53" height="0.54"/><rect class="cls-1" x="22.4" y="10.19" width="0.53" height="0.54"/><rect class="cls-1" x="22.4" y="10.97" width="0.53" height="0.54"/><rect class="cls-1" x="22.4" y="11.75" width="0.53" height="0.54"/><rect class="cls-1" x="22.4" y="12.54" width="0.53" height="0.54"/><rect class="cls-1" x="22.4" y="13.32" width="0.53" height="0.54"/><rect class="cls-1" x="22.4" y="14.11" width="0.53" height="0.54"/><rect class="cls-1" x="22.4" y="14.89" width="0.53" height="0.54"/><rect class="cls-1" x="22.4" y="8.41" width="0.53" height="0.54"/><rect class="cls-1" x="22.4" y="7.42" width="0.53" height="0.54"/><rect class="cls-1" x="22.4" y="15.52" width="0.53" height="0.54"/><rect class="cls-1" x="22.3" y="1.99" width="0.53" height="0.54"/><rect class="cls-1" x="22.4" y="6.64" width="0.53" height="0.54"/><rect class="cls-1" x="23.39" y="1.04" width="0.53" height="0.54"/><rect class="cls-1" x="23.36" y="2.66" width="0.53" height="0.54"/><rect class="cls-1" x="23.36" y="3.65" width="0.53" height="0.54"/><rect class="cls-1" x="23.36" y="4.65" width="0.53" height="0.54"/><rect class="cls-1" x="23.36" y="5.64" width="0.53" height="0.54"/><rect class="cls-1" x="23.46" y="9.4" width="0.53" height="0.54"/><rect class="cls-1" x="23.46" y="10.19" width="0.53" height="0.54"/><rect class="cls-1" x="23.46" y="10.97" width="0.53" height="0.54"/><rect class="cls-1" x="23.46" y="11.75" width="0.53" height="0.54"/><rect class="cls-1" x="23.46" y="12.54" width="0.53" height="0.54"/><rect class="cls-1" x="23.46" y="13.32" width="0.53" height="0.54"/><rect class="cls-1" x="23.46" y="14.11" width="0.53" height="0.54"/><rect class="cls-1" x="23.46" y="14.89" width="0.53" height="0.54"/><rect class="cls-1" x="23.46" y="8.41" width="0.53" height="0.54"/><rect class="cls-1" x="23.46" y="7.42" width="0.53" height="0.54"/><rect class="cls-1" x="23.46" y="15.52" width="0.53" height="0.54"/><rect class="cls-1" x="23.36" y="1.99" width="0.53" height="0.54"/><rect class="cls-1" x="23.46" y="6.64" width="0.53" height="0.54"/><rect class="cls-1" x="24.42" y="2.66" width="0.53" height="0.54"/><rect class="cls-1" x="24.42" y="3.65" width="0.53" height="0.54"/><rect class="cls-1" x="24.42" y="4.65" width="0.53" height="0.54"/><rect class="cls-1" x="24.42" y="5.64" width="0.53" height="0.54"/><rect class="cls-1" x="24.52" y="9.4" width="0.53" height="0.54"/><rect class="cls-1" x="24.52" y="10.19" width="0.53" height="0.54"/><rect class="cls-1" x="24.52" y="10.97" width="0.53" height="0.54"/><rect class="cls-1" x="24.52" y="11.75" width="0.53" height="0.54"/><rect class="cls-1" x="24.52" y="12.54" width="0.53" height="0.54"/><rect class="cls-1" x="24.52" y="13.32" width="0.53" height="0.54"/><rect class="cls-1" x="24.52" y="14.11" width="0.53" height="0.54"/><rect class="cls-1" x="24.52" y="14.89" width="0.53" height="0.54"/><rect class="cls-1" x="24.52" y="8.41" width="0.53" height="0.54"/><rect class="cls-1" x="24.52" y="7.42" width="0.53" height="0.54"/><rect class="cls-1" x="24.52" y="15.52" width="0.53" height="0.54"/><rect class="cls-1" x="24.42" y="1.99" width="0.53" height="0.54"/><rect class="cls-1" x="24.52" y="6.64" width="0.53" height="0.54"/><rect class="cls-1" x="25.48" y="2.66" width="0.53" height="0.54"/><rect class="cls-1" x="25.48" y="3.65" width="0.53" height="0.54"/><rect class="cls-1" x="25.48" y="4.65" width="0.53" height="0.54"/><rect class="cls-1" x="25.48" y="5.64" width="0.53" height="0.54"/><rect class="cls-1" x="25.58" y="9.4" width="0.53" height="0.54"/><rect class="cls-1" x="25.58" y="10.19" width="0.53" height="0.54"/><rect class="cls-1" x="25.58" y="10.97" width="0.53" height="0.54"/><rect class="cls-1" x="25.58" y="11.75" width="0.53" height="0.54"/><rect class="cls-1" x="25.58" y="12.54" width="0.53" height="0.54"/><rect class="cls-1" x="25.58" y="13.32" width="0.53" height="0.54"/><rect class="cls-1" x="25.58" y="14.11" width="0.53" height="0.54"/><rect class="cls-1" x="25.58" y="14.89" width="0.53" height="0.54"/><rect class="cls-1" x="25.58" y="8.41" width="0.53" height="0.54"/><rect class="cls-1" x="25.58" y="7.42" width="0.53" height="0.54"/><rect class="cls-1" x="25.58" y="15.52" width="0.53" height="0.54"/><rect class="cls-1" x="25.48" y="1.99" width="0.53" height="0.54"/><rect class="cls-1" x="25.58" y="6.64" width="0.53" height="0.54"/><rect class="cls-1" x="26.54" y="2.66" width="0.53" height="0.54"/><rect class="cls-1" x="26.54" y="3.65" width="0.53" height="0.54"/><rect class="cls-1" x="26.54" y="4.65" width="0.53" height="0.54"/><rect class="cls-1" x="26.54" y="5.64" width="0.53" height="0.54"/><rect class="cls-1" x="26.64" y="9.4" width="0.53" height="0.54"/><rect class="cls-1" x="26.64" y="10.19" width="0.53" height="0.54"/><rect class="cls-1" x="26.64" y="10.97" width="0.53" height="0.54"/><rect class="cls-1" x="26.64" y="11.75" width="0.53" height="0.54"/><rect class="cls-1" x="26.64" y="12.54" width="0.53" height="0.54"/><rect class="cls-1" x="26.64" y="13.32" width="0.53" height="0.54"/><rect class="cls-1" x="26.64" y="14.11" width="0.53" height="0.54"/><rect class="cls-1" x="26.64" y="14.89" width="0.53" height="0.54"/><rect class="cls-1" x="26.64" y="8.41" width="0.53" height="0.54"/><rect class="cls-1" x="26.64" y="7.42" width="0.53" height="0.54"/><rect class="cls-1" x="26.64" y="15.52" width="0.53" height="0.54"/><rect class="cls-1" x="26.54" y="1.99" width="0.53" height="0.54"/><rect class="cls-1" x="26.64" y="6.64" width="0.53" height="0.54"/><rect class="cls-1" x="27.6" y="2.66" width="0.53" height="0.54"/><rect class="cls-1" x="27.6" y="3.65" width="0.53" height="0.54"/><rect class="cls-1" x="27.6" y="4.65" width="0.53" height="0.54"/><rect class="cls-1" x="27.6" y="5.64" width="0.53" height="0.54"/><rect class="cls-1" x="27.7" y="9.4" width="0.53" height="0.54"/><rect class="cls-1" x="27.7" y="10.19" width="0.53" height="0.54"/><rect class="cls-1" x="27.7" y="10.97" width="0.53" height="0.54"/><rect class="cls-1" x="27.7" y="11.75" width="0.53" height="0.54"/><rect class="cls-1" x="27.7" y="12.54" width="0.53" height="0.54"/><rect class="cls-1" x="27.7" y="13.32" width="0.53" height="0.54"/><rect class="cls-1" x="27.7" y="14.11" width="0.53" height="0.54"/><rect class="cls-1" x="27.7" y="14.89" width="0.53" height="0.54"/><rect class="cls-1" x="27.7" y="8.41" width="0.53" height="0.54"/><rect class="cls-1" x="27.7" y="7.42" width="0.53" height="0.54"/><rect class="cls-1" x="27.7" y="15.52" width="0.53" height="0.54"/><rect class="cls-1" x="27.6" y="1.99" width="0.53" height="0.54"/><rect class="cls-1" x="27.7" y="6.64" width="0.53" height="0.54"/><rect class="cls-1" x="28.66" y="2.66" width="0.53" height="0.54"/><rect class="cls-1" x="28.66" y="3.65" width="0.53" height="0.54"/><rect class="cls-1" x="28.66" y="4.65" width="0.53" height="0.54"/><rect class="cls-1" x="28.66" y="5.64" width="0.53" height="0.54"/><rect class="cls-1" x="28.76" y="9.4" width="0.53" height="0.54"/><rect class="cls-1" x="28.76" y="10.19" width="0.53" height="0.54"/><rect class="cls-1" x="28.76" y="10.97" width="0.53" height="0.54"/><rect class="cls-1" x="28.76" y="11.75" width="0.53" height="0.54"/><rect class="cls-1" x="28.76" y="12.54" width="0.53" height="0.54"/><rect class="cls-1" x="28.76" y="13.32" width="0.53" height="0.54"/><rect class="cls-1" x="28.76" y="14.11" width="0.53" height="0.54"/><rect class="cls-1" x="28.76" y="14.89" width="0.53" height="0.54"/><rect class="cls-1" x="28.76" y="8.41" width="0.53" height="0.54"/><rect class="cls-1" x="28.76" y="7.42" width="0.53" height="0.54"/><rect class="cls-1" x="28.76" y="15.52" width="0.53" height="0.54"/><rect class="cls-1" x="28.66" y="1.99" width="0.53" height="0.54"/><rect class="cls-1" x="28.76" y="6.64" width="0.53" height="0.54"/><rect class="cls-1" x="29.72" y="2.66" width="0.53" height="0.54"/><rect class="cls-1" x="29.72" y="3.65" width="0.53" height="0.54"/><rect class="cls-1" x="29.72" y="4.65" width="0.53" height="0.54"/><rect class="cls-1" x="29.72" y="5.64" width="0.53" height="0.54"/><rect class="cls-1" x="29.82" y="9.4" width="0.53" height="0.54"/><rect class="cls-1" x="29.82" y="10.19" width="0.53" height="0.54"/><rect class="cls-1" x="29.82" y="10.97" width="0.53" height="0.54"/><rect class="cls-1" x="29.82" y="11.75" width="0.53" height="0.54"/><rect class="cls-1" x="29.82" y="12.54" width="0.53" height="0.54"/><rect class="cls-1" x="29.82" y="13.32" width="0.53" height="0.54"/><rect class="cls-1" x="29.82" y="14.11" width="0.53" height="0.54"/><rect class="cls-1" x="29.82" y="14.89" width="0.53" height="0.54"/><rect class="cls-1" x="29.82" y="8.41" width="0.53" height="0.54"/><rect class="cls-1" x="29.82" y="7.42" width="0.53" height="0.54"/><rect class="cls-1" x="29.82" y="15.52" width="0.53" height="0.54"/><rect class="cls-1" x="29.72" y="1.99" width="0.53" height="0.54"/><rect class="cls-1" x="29.82" y="6.64" width="0.53" height="0.54"/><rect class="cls-1" x="30.78" y="2.66" width="0.53" height="0.54"/><rect class="cls-1" x="30.78" y="3.65" width="0.53" height="0.54"/><rect class="cls-1" x="30.78" y="4.65" width="0.53" height="0.54"/><rect class="cls-1" x="30.78" y="5.64" width="0.53" height="0.54"/><rect class="cls-1" x="30.88" y="9.4" width="0.53" height="0.54"/><rect class="cls-1" x="30.88" y="10.19" width="0.53" height="0.54"/><rect class="cls-1" x="30.88" y="10.97" width="0.53" height="0.54"/><rect class="cls-1" x="30.88" y="11.75" width="0.53" height="0.54"/><rect class="cls-1" x="30.88" y="12.54" width="0.53" height="0.54"/><rect class="cls-1" x="30.88" y="13.32" width="0.53" height="0.54"/><rect class="cls-1" x="30.88" y="14.11" width="0.53" height="0.54"/><rect class="cls-1" x="30.88" y="14.89" width="0.53" height="0.54"/><rect class="cls-1" x="30.88" y="8.41" width="0.53" height="0.54"/><rect class="cls-1" x="30.88" y="7.42" width="0.53" height="0.54"/><rect class="cls-1" x="30.88" y="15.52" width="0.53" height="0.54"/><rect class="cls-1" x="30.78" y="1.99" width="0.53" height="0.54"/><rect class="cls-1" x="30.88" y="6.64" width="0.53" height="0.54"/><rect class="cls-1" x="31.87" y="1.04" width="0.53" height="0.54"/><rect class="cls-1" x="31.84" y="2.66" width="0.53" height="0.54"/><rect class="cls-1" x="31.84" y="3.65" width="0.53" height="0.54"/><rect class="cls-1" x="31.84" y="4.65" width="0.53" height="0.54"/><rect class="cls-1" x="31.84" y="5.64" width="0.53" height="0.54"/><rect class="cls-1" x="31.94" y="9.4" width="0.53" height="0.54"/><rect class="cls-1" x="31.94" y="10.19" width="0.53" height="0.54"/><rect class="cls-1" x="31.94" y="10.97" width="0.53" height="0.54"/><rect class="cls-1" x="31.94" y="11.75" width="0.53" height="0.54"/><rect class="cls-1" x="31.94" y="12.54" width="0.53" height="0.54"/><rect class="cls-1" x="31.94" y="13.32" width="0.53" height="0.54"/><rect class="cls-1" x="31.94" y="14.11" width="0.53" height="0.54"/><rect class="cls-1" x="31.94" y="14.89" width="0.53" height="0.54"/><rect class="cls-1" x="31.94" y="8.41" width="0.53" height="0.54"/><rect class="cls-1" x="31.94" y="7.42" width="0.53" height="0.54"/><rect class="cls-1" x="31.84" y="1.99" width="0.53" height="0.54"/><rect class="cls-1" x="31.94" y="6.64" width="0.53" height="0.54"/><rect class="cls-1" x="32.9" y="2.66" width="0.53" height="0.54"/><rect class="cls-1" x="32.9" y="3.65" width="0.53" height="0.54"/><rect class="cls-1" x="32.9" y="4.65" width="0.53" height="0.54"/><rect class="cls-1" x="32.9" y="5.64" width="0.53" height="0.54"/><rect class="cls-1" x="33" y="9.4" width="0.53" height="0.54"/><rect class="cls-1" x="33" y="10.19" width="0.53" height="0.54"/><rect class="cls-1" x="33" y="10.97" width="0.53" height="0.54"/><rect class="cls-1" x="33" y="11.75" width="0.53" height="0.54"/><rect class="cls-1" x="33" y="12.54" width="0.53" height="0.54"/><rect class="cls-1" x="33" y="13.32" width="0.53" height="0.54"/><rect class="cls-1" x="33" y="14.11" width="0.53" height="0.54"/><rect class="cls-1" x="33" y="14.89" width="0.53" height="0.54"/><rect class="cls-1" x="33" y="8.41" width="0.53" height="0.54"/><rect class="cls-1" x="33" y="7.42" width="0.53" height="0.54"/><rect class="cls-1" x="32.9" y="1.99" width="0.53" height="0.54"/><rect class="cls-1" x="33" y="6.64" width="0.53" height="0.54"/><rect class="cls-1" x="33.99" y="1.04" width="0.53" height="0.54"/><rect class="cls-1" x="33.96" y="2.66" width="0.53" height="0.54"/><rect class="cls-1" x="33.96" y="3.65" width="0.53" height="0.54"/><rect class="cls-1" x="33.96" y="4.65" width="0.53" height="0.54"/><rect class="cls-1" x="33.96" y="5.64" width="0.53" height="0.54"/><rect class="cls-1" x="34.06" y="9.4" width="0.53" height="0.54"/><rect class="cls-1" x="34.06" y="10.19" width="0.53" height="0.54"/><rect class="cls-1" x="34.06" y="10.97" width="0.53" height="0.54"/><rect class="cls-1" x="34.06" y="11.75" width="0.53" height="0.54"/><rect class="cls-1" x="34.06" y="12.54" width="0.53" height="0.54"/><rect class="cls-1" x="34.06" y="13.32" width="0.53" height="0.54"/><rect class="cls-1" x="34.06" y="14.11" width="0.53" height="0.54"/><rect class="cls-1" x="34.06" y="14.89" width="0.53" height="0.54"/><rect class="cls-1" x="34.06" y="8.41" width="0.53" height="0.54"/><rect class="cls-1" x="34.06" y="7.42" width="0.53" height="0.54"/><rect class="cls-1" x="33.96" y="1.99" width="0.53" height="0.54"/><rect class="cls-1" x="34.06" y="6.64" width="0.53" height="0.54"/><rect class="cls-1" x="35.05" y="1.04" width="0.53" height="0.54"/><rect class="cls-1" x="35.02" y="2.66" width="0.53" height="0.54"/><rect class="cls-1" x="35.02" y="3.65" width="0.53" height="0.54"/><rect class="cls-1" x="35.02" y="4.65" width="0.53" height="0.54"/><rect class="cls-1" x="35.02" y="5.64" width="0.53" height="0.54"/><rect class="cls-1" x="35.12" y="9.4" width="0.53" height="0.54"/><rect class="cls-1" x="35.12" y="10.19" width="0.53" height="0.54"/><rect class="cls-1" x="35.12" y="10.97" width="0.53" height="0.54"/><rect class="cls-1" x="35.12" y="11.75" width="0.53" height="0.54"/><rect class="cls-1" x="35.12" y="12.54" width="0.53" height="0.54"/><rect class="cls-1" x="35.12" y="13.32" width="0.53" height="0.54"/><rect class="cls-1" x="35.12" y="14.11" width="0.53" height="0.54"/><rect class="cls-1" x="35.12" y="8.41" width="0.53" height="0.54"/><rect class="cls-1" x="35.12" y="7.42" width="0.53" height="0.54"/><rect class="cls-1" x="35.02" y="1.99" width="0.53" height="0.54"/><rect class="cls-1" x="35.12" y="6.64" width="0.53" height="0.54"/><rect class="cls-1" x="36.11" y="1.04" width="0.53" height="0.54"/><rect class="cls-1" x="36.08" y="2.66" width="0.53" height="0.54"/><rect class="cls-1" x="36.08" y="3.65" width="0.53" height="0.54"/><rect class="cls-1" x="36.08" y="4.65" width="0.53" height="0.54"/><rect class="cls-1" x="36.08" y="5.64" width="0.53" height="0.54"/><rect class="cls-1" x="36.18" y="9.4" width="0.53" height="0.54"/><rect class="cls-1" x="36.18" y="10.19" width="0.53" height="0.54"/><rect class="cls-1" x="36.18" y="10.97" width="0.53" height="0.54"/><rect class="cls-1" x="36.18" y="11.75" width="0.53" height="0.54"/><rect class="cls-1" x="36.18" y="8.41" width="0.53" height="0.54"/><rect class="cls-1" x="36.18" y="7.42" width="0.53" height="0.54"/><rect class="cls-1" x="36.08" y="1.99" width="0.53" height="0.54"/><rect class="cls-1" x="36.18" y="6.64" width="0.53" height="0.54"/><rect class="cls-1" x="37.17" y="1.04" width="0.53" height="0.54"/><rect class="cls-1" x="37.14" y="2.66" width="0.53" height="0.54"/><rect class="cls-1" x="37.14" y="3.65" width="0.53" height="0.54"/><rect class="cls-1" x="37.14" y="4.65" width="0.53" height="0.54"/><rect class="cls-1" x="37.14" y="5.64" width="0.53" height="0.54"/><rect class="cls-1" x="37.24" y="9.4" width="0.53" height="0.54"/><rect class="cls-1" x="37.24" y="8.41" width="0.53" height="0.54"/><rect class="cls-1" x="37.24" y="7.42" width="0.53" height="0.54"/><rect class="cls-1" x="37.14" y="1.99" width="0.53" height="0.54"/><rect class="cls-1" x="37.24" y="6.64" width="0.53" height="0.54"/><rect class="cls-1" x="38.23" y="1.04" width="0.53" height="0.54"/><rect class="cls-1" x="38.2" y="2.66" width="0.53" height="0.54"/><rect class="cls-1" x="38.2" y="3.65" width="0.53" height="0.54"/><rect class="cls-1" x="38.2" y="4.65" width="0.53" height="0.54"/><rect class="cls-1" x="38.2" y="5.64" width="0.53" height="0.54"/><rect class="cls-1" x="38.2" y="1.99" width="0.53" height="0.54"/><rect class="cls-1" x="38.3" y="6.64" width="0.53" height="0.54"/><rect class="cls-1" x="39.29" y="1.04" width="0.53" height="0.54"/><rect class="cls-1" x="39.26" y="2.66" width="0.53" height="0.54"/><rect class="cls-1" x="39.26" y="3.65" width="0.53" height="0.54"/><rect class="cls-1" x="39.26" y="4.65" width="0.53" height="0.54"/><rect class="cls-1" x="39.26" y="5.64" width="0.53" height="0.54"/><rect class="cls-1" x="39.26" y="1.99" width="0.53" height="0.54"/><rect class="cls-1" x="40.35" y="1.04" width="0.53" height="0.54"/><rect class="cls-1" x="40.32" y="2.66" width="0.53" height="0.54"/><rect class="cls-1" x="40.32" y="3.65" width="0.53" height="0.54"/><rect class="cls-1" x="40.32" y="4.65" width="0.53" height="0.54"/><rect class="cls-1" x="40.32" y="1.99" width="0.53" height="0.54"/><rect class="cls-1" x="21.34" y="16.17" width="0.53" height="0.54"/><rect class="cls-1" x="22.4" y="16.17" width="0.53" height="0.54"/><rect class="cls-1" x="23.46" y="16.17" width="0.53" height="0.54"/><rect class="cls-1" x="24.52" y="16.17" width="0.53" height="0.54"/><rect class="cls-1" x="25.58" y="16.17" width="0.53" height="0.54"/><rect class="cls-1" x="26.64" y="16.17" width="0.53" height="0.54"/><rect class="cls-1" x="27.7" y="16.17" width="0.53" height="0.54"/><rect class="cls-1" x="28.76" y="16.17" width="0.53" height="0.54"/><rect class="cls-1" x="29.82" y="16.17" width="0.53" height="0.54"/><rect class="cls-1" x="30.88" y="16.17" width="0.53" height="0.54"/><rect class="cls-1" x="21.34" y="16.83" width="0.53" height="0.54"/><rect class="cls-1" x="22.4" y="16.83" width="0.53" height="0.54"/><rect class="cls-1" x="23.46" y="16.83" width="0.53" height="0.54"/><rect class="cls-1" x="24.52" y="16.83" width="0.53" height="0.54"/><rect class="cls-1" x="25.58" y="16.83" width="0.53" height="0.54"/><rect class="cls-1" x="26.64" y="16.83" width="0.53" height="0.54"/><rect class="cls-1" x="27.7" y="16.83" width="0.53" height="0.54"/><rect class="cls-1" x="28.76" y="16.83" width="0.53" height="0.54"/><rect class="cls-1" x="29.82" y="16.83" width="0.53" height="0.54"/><rect class="cls-1" x="21.34" y="17.48" width="0.53" height="0.54"/><rect class="cls-1" x="22.4" y="17.48" width="0.53" height="0.54"/><rect class="cls-1" x="23.46" y="17.48" width="0.53" height="0.54"/><rect class="cls-1" x="24.52" y="17.48" width="0.53" height="0.54"/><rect class="cls-1" x="25.58" y="17.48" width="0.53" height="0.54"/><rect class="cls-1" x="26.64" y="17.48" width="0.53" height="0.54"/><rect class="cls-1" x="27.7" y="17.48" width="0.53" height="0.54"/><rect class="cls-1" x="28.76" y="17.48" width="0.53" height="0.54"/><rect class="cls-1" x="29.82" y="17.48" width="0.53" height="0.54"/><rect class="cls-1" x="21.34" y="18.14" width="0.53" height="0.54"/><rect class="cls-1" x="22.4" y="18.14" width="0.53" height="0.54"/><rect class="cls-1" x="23.46" y="18.14" width="0.53" height="0.54"/><rect class="cls-1" x="24.52" y="18.14" width="0.53" height="0.54"/><rect class="cls-1" x="25.58" y="18.14" width="0.53" height="0.54"/><rect class="cls-1" x="26.64" y="18.14" width="0.53" height="0.54"/><rect class="cls-1" x="27.7" y="18.14" width="0.53" height="0.54"/><rect class="cls-1" x="28.76" y="18.14" width="0.53" height="0.54"/><rect class="cls-1" x="29.82" y="18.14" width="0.53" height="0.54"/><rect class="cls-1" x="21.34" y="18.79" width="0.53" height="0.54"/><rect class="cls-1" x="22.4" y="18.79" width="0.53" height="0.54"/><rect class="cls-1" x="23.46" y="18.79" width="0.53" height="0.54"/><rect class="cls-1" x="24.52" y="18.79" width="0.53" height="0.54"/><rect class="cls-1" x="25.58" y="18.79" width="0.53" height="0.54"/><rect class="cls-1" x="26.64" y="18.79" width="0.53" height="0.54"/><rect class="cls-1" x="27.7" y="18.79" width="0.53" height="0.54"/><rect class="cls-1" x="28.76" y="18.79" width="0.53" height="0.54"/><rect class="cls-1" x="21.34" y="19.45" width="0.53" height="0.54"/><rect class="cls-1" x="22.4" y="19.45" width="0.53" height="0.54"/><rect class="cls-1" x="23.46" y="19.45" width="0.53" height="0.54"/><rect class="cls-1" x="24.52" y="19.45" width="0.53" height="0.54"/><rect class="cls-1" x="25.58" y="19.45" width="0.53" height="0.54"/><rect class="cls-1" x="26.64" y="19.45" width="0.53" height="0.54"/><rect class="cls-1" x="27.7" y="19.45" width="0.53" height="0.54"/><rect class="cls-1" x="28.76" y="19.45" width="0.53" height="0.54"/><path class="cls-2" d="M32.06,20l0-1.38h.57a1.13,1.13,0,0,1,.32,0,.4.4,0,0,1,.21.36.36.36,0,0,1-.1.25.38.38,0,0,1-.27.12l.15.12.15.23.16.27H33l-.19-.3a1,1,0,0,0-.14-.2.21.21,0,0,0-.08-.06l-.14,0h0l0,.57Zm.29-.79h.45a.11.11,0,0,0,.07-.06.3.3,0,0,0,0-.1.12.12,0,0,0,0-.11.17.17,0,0,0-.1-.06h-.41Z"/><path class="cls-2" d="M34.37,19.5l.26.09a.62.62,0,0,1-.21.34.59.59,0,0,1-.36.1.56.56,0,0,1-.44-.2.71.71,0,0,1-.16-.51.72.72,0,0,1,.18-.53.59.59,0,0,1,.46-.19.63.63,0,0,1,.41.16.58.58,0,0,1,.13.26l-.27.06a.32.32,0,0,0-.1-.17.29.29,0,0,0-.18-.07.33.33,0,0,0-.25.11.76.76,0,0,0,0,.72.29.29,0,0,0,.24.12.25.25,0,0,0,.19-.07.45.45,0,0,0,.12-.22Zm.55-.21V19h.26v.26Zm0,.73v-.26h.26V20Zm.52-.35.25,0a.26.26,0,0,0,.06.15.18.18,0,0,0,.13.06.16.16,0,0,0,.13-.06.24.24,0,0,0,.06-.17.22.22,0,0,0-.05-.16.14.14,0,0,0-.12-.06l-.12,0,0-.21a.21.21,0,0,0,.16-.05A.15.15,0,0,0,36,19a.15.15,0,0,0,0-.11.14.14,0,0,0-.11,0,.15.15,0,0,0-.11,0,.26.26,0,0,0-.06.14l-.24,0a.76.76,0,0,1,.08-.2.3.3,0,0,1,.14-.11.46.46,0,0,1,.21,0,.38.38,0,0,1,.3.13.33.33,0,0,1,.09.23.33.33,0,0,1-.2.29.23.23,0,0,1,.18.12.3.3,0,0,1,.07.21.43.43,0,0,1-.14.31.47.47,0,0,1-.32.12.41.41,0,0,1-.31-.12.43.43,0,0,1-.13-.28Zm1.52-1a.34.34,0,0,1,.3.15.85.85,0,0,1,.12.56.9.9,0,0,1-.14.56.35.35,0,0,1-.31.14.4.4,0,0,1-.32-.16,1.07,1.07,0,0,1-.11-.56,1,1,0,0,1,.15-.56.37.37,0,0,1,.31-.13Zm0,.22a.13.13,0,0,0-.08,0,.27.27,0,0,0-.06.11,1.3,1.3,0,0,0,0,.34,1.34,1.34,0,0,0,0,.33.23.23,0,0,0,.05.13.14.14,0,0,0,.09,0,.13.13,0,0,0,.08,0,.36.36,0,0,0,.06-.11,2.09,2.09,0,0,0,0-.34,1.39,1.39,0,0,0,0-.34.23.23,0,0,0,0-.12.16.16,0,0,0-.09,0Zm.59.81.25,0a.26.26,0,0,0,.07.16.17.17,0,0,0,.12.05.2.2,0,0,0,.14-.06.38.38,0,0,0,.06-.17.28.28,0,0,0-.05-.16.31.31,0,0,0-.13-.06l-.12,0,0-.21a.24.24,0,0,0,.16,0,.18.18,0,0,0,.06-.14.15.15,0,0,0,0-.11.12.12,0,0,0-.1,0,.16.16,0,0,0-.12,0,.26.26,0,0,0-.06.14l-.24-.05a.76.76,0,0,1,.08-.2.58.58,0,0,1,.15-.11.42.42,0,0,1,.2,0,.35.35,0,0,1,.3.13.31.31,0,0,1,.09.23.33.33,0,0,1-.2.29.35.35,0,0,1,.19.12.37.37,0,0,1,.06.21.46.46,0,0,1-.13.31.48.48,0,0,1-.33.12.43.43,0,0,1-.44-.4Zm1,0,.26,0a.2.2,0,0,0,.06.15.17.17,0,0,0,.12.05.18.18,0,0,0,.14-.06.22.22,0,0,0,.06-.17.23.23,0,0,0,0-.15.18.18,0,0,0-.13-.06.26.26,0,0,0-.12,0l0-.21a.29.29,0,0,0,.17,0,.22.22,0,0,0,.05-.14.2.2,0,0,0,0-.11.15.15,0,0,0-.11,0,.17.17,0,0,0-.12,0,.3.3,0,0,0-.06.14l-.23-.05a.43.43,0,0,1,.22-.31.45.45,0,0,1,.2,0,.42.42,0,0,1,.31.13.35.35,0,0,1,.09.23.35.35,0,0,1-.2.29.36.36,0,0,1,.18.12.31.31,0,0,1,.06.21.4.4,0,0,1-.13.31.48.48,0,0,1-.33.12.44.44,0,0,1-.3-.11.5.5,0,0,1-.14-.29Zm1.72.4H40l0-1a.88.88,0,0,1-.34.19v-.24A.69.69,0,0,0,40,19a.51.51,0,0,0,.17-.22h.21l0,1.38ZM40.71,19v-.24l.88,0V19a1.78,1.78,0,0,0-.23.31,1.7,1.7,0,0,0-.18.44,1.68,1.68,0,0,0-.07.41h-.25a1.79,1.79,0,0,1,.13-.58,2,2,0,0,1,.3-.52Z"/><path class="cls-2" d="M11.12,2.79v-2H10.4V.32h1.92V.74h-.71V2.79Zm2-2.47v.92A.68.68,0,0,1,13.63,1a.94.94,0,0,1,.3.06.6.6,0,0,1,.19.16.67.67,0,0,1,.09.21,1.58,1.58,0,0,1,0,.35V2.79h-.46V1.85a1.27,1.27,0,0,0,0-.36.18.18,0,0,0-.09-.12.31.31,0,0,0-.17,0,.36.36,0,0,0-.21,0,.3.3,0,0,0-.13.18.91.91,0,0,0-.05.33v.9h-.46V.32Zm2.63,1.9.46.08a.7.7,0,0,1-.28.4.82.82,0,0,1-.48.13.79.79,0,0,1-.68-.3,1.1,1.1,0,0,1-.17-.62,1,1,0,0,1,.23-.69A.73.73,0,0,1,15.37,1a.77.77,0,0,1,.62.27,1.19,1.19,0,0,1,.22.8H15.05a.47.47,0,0,0,.11.33.34.34,0,0,0,.26.12.29.29,0,0,0,.19-.06.35.35,0,0,0,.11-.2Zm0-.47a.49.49,0,0,0-.11-.32.3.3,0,0,0-.24-.1.31.31,0,0,0-.25.11.43.43,0,0,0-.09.31Z"/><path class="cls-2" d="M3.05,6.16V3.69h.47l1,1.66V3.69H5V6.16H4.48l-1-1.62V6.16Zm2.44-2V3.69H6v.44Zm0,2V4.37H6V6.16Zm.89.11.54.07A.23.23,0,0,0,7,6.47a.36.36,0,0,0,.21,0,.49.49,0,0,0,.27-.06.19.19,0,0,0,.09-.12.53.53,0,0,0,0-.21V5.87a.65.65,0,0,1-1.09,0,1.08,1.08,0,0,1-.17-.6,1,1,0,0,1,.22-.69.67.67,0,0,1,.52-.24.65.65,0,0,1,.54.29V4.37H8V6a1.84,1.84,0,0,1,0,.48.7.7,0,0,1-.15.24.55.55,0,0,1-.25.14,1.37,1.37,0,0,1-.39,0,1,1,0,0,1-.63-.15.53.53,0,0,1-.19-.4V6.27Zm.42-1a.68.68,0,0,0,.11.42.35.35,0,0,0,.27.13.37.37,0,0,0,.28-.14.58.58,0,0,0,.12-.4.67.67,0,0,0-.11-.41.36.36,0,0,0-.29-.13.32.32,0,0,0-.27.13.64.64,0,0,0-.11.4Zm2.71.36.47.08a.76.76,0,0,1-.29.4.8.8,0,0,1-.48.13.8.8,0,0,1-.68-.3,1.08,1.08,0,0,1-.17-.62,1,1,0,0,1,.23-.69.74.74,0,0,1,.58-.26.75.75,0,0,1,.61.27,1.14,1.14,0,0,1,.22.8H8.84A.47.47,0,0,0,9,5.73a.34.34,0,0,0,.27.12.28.28,0,0,0,.18-.06.35.35,0,0,0,.11-.2Zm0-.47a.44.44,0,0,0-.11-.32.3.3,0,0,0-.24-.1.31.31,0,0,0-.25.11.44.44,0,0,0-.09.31Zm1.28,1h-.46V4.37h.43v.26a.74.74,0,0,1,.2-.24.34.34,0,0,1,.2-.06.62.62,0,0,1,.3.09l-.14.41a.4.4,0,0,0-.22-.07.28.28,0,0,0-.16,0,.38.38,0,0,0-.11.2,2.57,2.57,0,0,0,0,.6v.55Zm.87-2V3.69h.47v.44Zm0,2V4.37h.47V6.16ZM13,4.92l-.42-.07a.69.69,0,0,1,.24-.39.92.92,0,0,1,.52-.13,1.14,1.14,0,0,1,.47.08A.49.49,0,0,1,14,4.6a1,1,0,0,1,.06.42v.55a1.44,1.44,0,0,0,0,.35,1,1,0,0,0,.08.24H13.7l0-.14a.12.12,0,0,0,0,0,1.06,1.06,0,0,1-.26.17.67.67,0,0,1-.28.06.59.59,0,0,1-.43-.15.46.46,0,0,1-.16-.37.61.61,0,0,1,.07-.28.55.55,0,0,1,.2-.17,1.26,1.26,0,0,1,.37-.11L13.6,5V5a.28.28,0,0,0-.06-.2.49.49,0,0,0-.25,0,.3.3,0,0,0-.2,0,.38.38,0,0,0-.11.17Zm.62.38a1.24,1.24,0,0,1-.28.08.59.59,0,0,0-.25.08.19.19,0,0,0-.09.16.24.24,0,0,0,.25.25.41.41,0,0,0,.24-.08.36.36,0,0,0,.12-.16,1.29,1.29,0,0,0,0-.23V5.3Zm2.51.86h-.46V5.25a1.46,1.46,0,0,0,0-.38.31.31,0,0,0-.1-.13.27.27,0,0,0-.16,0,.43.43,0,0,0-.22.06.38.38,0,0,0-.13.18,1.72,1.72,0,0,0,0,.41v.81h-.46V4.37h.43v.26a.72.72,0,0,1,.58-.3.67.67,0,0,1,.48.2.72.72,0,0,1,.09.2,1.42,1.42,0,0,1,0,.32Z"/><path class="cls-2" d="M.42,9.53V7.07H2.21v.41H.91V8H2.12v.41H.91v.67H2.26v.42ZM4.2,8.27l-.46.09a.3.3,0,0,0-.1-.21.32.32,0,0,0-.22-.07.34.34,0,0,0-.27.12A.63.63,0,0,0,3,8.61a.74.74,0,0,0,.11.45.36.36,0,0,0,.28.13.33.33,0,0,0,.22-.08.57.57,0,0,0,.12-.26l.45.08A.81.81,0,0,1,4,9.41a.81.81,0,0,1-.54.16.79.79,0,0,1-.61-.24,1,1,0,0,1-.23-.69A1,1,0,0,1,2.8,8a.82.82,0,0,1,.62-.25.81.81,0,0,1,.51.15.81.81,0,0,1,.27.42Zm.24.34a.89.89,0,0,1,.12-.45.75.75,0,0,1,.32-.34.91.91,0,0,1,.47-.12A.86.86,0,0,1,6,8a.92.92,0,0,1,.25.66A.9.9,0,0,1,6,9.3a.86.86,0,0,1-.65.27.92.92,0,0,1-.46-.11.68.68,0,0,1-.33-.32,1.09,1.09,0,0,1-.12-.53Zm.48,0A.63.63,0,0,0,5,9.05a.43.43,0,0,0,.31.14.39.39,0,0,0,.3-.14.59.59,0,0,0,.13-.42.55.55,0,0,0-.13-.4.39.39,0,0,0-.3-.14A.43.43,0,0,0,5,8.23a.61.61,0,0,0-.12.41Zm3.3.89H7.75V8.62a1.31,1.31,0,0,0,0-.37.28.28,0,0,0-.1-.14.25.25,0,0,0-.16,0,.43.43,0,0,0-.22.06.46.46,0,0,0-.13.18,1.88,1.88,0,0,0,0,.41v.81H6.61V7.74H7V8a.72.72,0,0,1,.58-.3.61.61,0,0,1,.28.06.54.54,0,0,1,.2.14.72.72,0,0,1,.09.2,1.33,1.33,0,0,1,0,.32V9.53Zm.36-.92a1,1,0,0,1,.11-.45A.88.88,0,0,1,9,7.82a.94.94,0,0,1,.47-.12.83.83,0,0,1,.65.27.93.93,0,0,1,.26.66.9.9,0,0,1-.26.67.85.85,0,0,1-.65.27A1,1,0,0,1,9,9.46a.78.78,0,0,1-.33-.32,1.22,1.22,0,0,1-.11-.53Zm.48,0a.63.63,0,0,0,.12.41.39.39,0,0,0,.3.14.4.4,0,0,0,.31-.14.64.64,0,0,0,.12-.42.6.6,0,0,0-.12-.4.4.4,0,0,0-.31-.14.39.39,0,0,0-.3.14.61.61,0,0,0-.12.41Zm1.66-.9h.43V8a.68.68,0,0,1,.54-.29.7.7,0,0,1,.3.07.62.62,0,0,1,.2.22.84.84,0,0,1,.25-.22.68.68,0,0,1,.28-.07.67.67,0,0,1,.33.08.48.48,0,0,1,.2.24,1,1,0,0,1,.05.37V9.53h-.46v-1a.76.76,0,0,0-.05-.34.22.22,0,0,0-.2-.1.35.35,0,0,0-.18,0,.4.4,0,0,0-.13.18,1.52,1.52,0,0,0,0,.37v.86h-.46v-1a2.22,2.22,0,0,0,0-.34.44.44,0,0,0-.08-.11.29.29,0,0,0-.14,0,.42.42,0,0,0-.2,0,.35.35,0,0,0-.12.17,1.52,1.52,0,0,0,0,.37v.87h-.46V7.74Zm3-.24V7.07h.47V7.5Zm0,2V7.74h.47V9.53Zm2.47-1.26-.45.09a.3.3,0,0,0-.11-.21.28.28,0,0,0-.21-.07.35.35,0,0,0-.28.12.63.63,0,0,0-.1.41.75.75,0,0,0,.1.45.37.37,0,0,0,.28.13.33.33,0,0,0,.22-.08.42.42,0,0,0,.12-.26l.46.08a.87.87,0,0,1-.27.48.86.86,0,0,1-.55.16.81.81,0,0,1-.61-.24,1,1,0,0,1-.23-.69A1,1,0,0,1,14.83,8a.82.82,0,0,1,.62-.25.79.79,0,0,1,.51.15A.71.71,0,0,1,16.23,8.27Z"/><path class="cls-2" d="M4.05,12.1l.48,0a.61.61,0,0,0,.17.36.51.51,0,0,0,.35.11.53.53,0,0,0,.36-.1.29.29,0,0,0,.12-.24.22.22,0,0,0,0-.14.35.35,0,0,0-.18-.11l-.39-.11a1.36,1.36,0,0,1-.55-.24.7.7,0,0,1-.22-.5.54.54,0,0,1,.11-.35.68.68,0,0,1,.3-.25A1.13,1.13,0,0,1,5,10.39a1,1,0,0,1,.69.21.72.72,0,0,1,.24.54l-.49,0a.43.43,0,0,0-.13-.27A.5.5,0,0,0,5,10.8a.52.52,0,0,0-.33.09.2.2,0,0,0,0,.31,1.18,1.18,0,0,0,.45.16,2.65,2.65,0,0,1,.53.18.63.63,0,0,1,.26.25.67.67,0,0,1,.1.39.75.75,0,0,1-.12.4.66.66,0,0,1-.32.27,1.36,1.36,0,0,1-.53.09,1.07,1.07,0,0,1-.71-.21.94.94,0,0,1-.29-.63Zm3.54.8v-.27a.69.69,0,0,1-.25.23.62.62,0,0,1-.33.08.59.59,0,0,1-.32-.08.43.43,0,0,1-.2-.22,1.07,1.07,0,0,1-.06-.39V11.11h.46v.83a2,2,0,0,0,0,.46.2.2,0,0,0,.09.13.23.23,0,0,0,.17.05.35.35,0,0,0,.35-.23,2.29,2.29,0,0,0,0-.48v-.76H8V12.9Zm.88-1.79h.42v.25a.68.68,0,0,1,.55-.28.65.65,0,0,1,.29.06.54.54,0,0,1,.2.22.77.77,0,0,1,.26-.22.64.64,0,0,1,.28-.06.67.67,0,0,1,.33.07.59.59,0,0,1,.2.24,1.1,1.1,0,0,1,0,.37V12.9h-.46v-1a.76.76,0,0,0-.05-.34.2.2,0,0,0-.2-.1.32.32,0,0,0-.18.06.27.27,0,0,0-.12.17A1.14,1.14,0,0,0,10,12v.86H9.53v-1a1.24,1.24,0,0,0,0-.34.28.28,0,0,0-.08-.11.26.26,0,0,0-.14,0,.33.33,0,0,0-.19.06.25.25,0,0,0-.12.16,1.14,1.14,0,0,0,0,.37v.87H8.47V11.11Zm3,0h.43v.25a.68.68,0,0,1,.55-.28.65.65,0,0,1,.29.06.54.54,0,0,1,.2.22.84.84,0,0,1,.25-.22.72.72,0,0,1,.29-.06.7.7,0,0,1,.33.07.68.68,0,0,1,.2.24,1.1,1.1,0,0,1,0,.37V12.9h-.46v-1a.76.76,0,0,0-.05-.34.21.21,0,0,0-.2-.1.34.34,0,0,0-.31.23A1.64,1.64,0,0,0,13,12v.86h-.47v-1a1.39,1.39,0,0,0,0-.34.28.28,0,0,0-.08-.11.26.26,0,0,0-.14,0,.31.31,0,0,0-.19.06.25.25,0,0,0-.12.16,1.14,1.14,0,0,0,0,.37v.87h-.47V11.11Zm3-.24v-.43H15v.43Zm0,2V11.11H15V12.9Zm1.74-1.79v.38h-.32v.72c0,.15,0,.23,0,.26l0,.06.08,0a.58.58,0,0,0,.19,0l0,.36a.87.87,0,0,1-.37.07.59.59,0,0,1-.23,0,.4.4,0,0,1-.14-.11.69.69,0,0,1-.07-.19,2.47,2.47,0,0,1,0-.33v-.78h-.22v-.38h.22v-.35l.46-.28v.63Z"/><path class="cls-2" d="M7.56,15.36V15H8.62v1a1.34,1.34,0,0,1-.45.27,1.51,1.51,0,0,1-.59.11,1.29,1.29,0,0,1-.66-.16,1.06,1.06,0,0,1-.43-.46A1.66,1.66,0,0,1,6.35,15a1.53,1.53,0,0,1,.16-.69A1.1,1.1,0,0,1,7,13.88a1.2,1.2,0,0,1,.57-.12,1.2,1.2,0,0,1,.71.19.89.89,0,0,1,.33.54l-.49.09a.53.53,0,0,0-.19-.29.59.59,0,0,0-.36-.1.65.65,0,0,0-.5.2.89.89,0,0,0-.19.62,1,1,0,0,0,.19.66.65.65,0,0,0,.5.22.89.89,0,0,0,.31-.06,1.27,1.27,0,0,0,.26-.15v-.32Zm2,.91H9.05V14.48h.43v.26a.74.74,0,0,1,.2-.24.33.33,0,0,1,.2-.05.64.64,0,0,1,.3.08l-.14.41a.4.4,0,0,0-.22-.07.28.28,0,0,0-.16.05.32.32,0,0,0-.11.2,2.63,2.63,0,0,0,0,.6v.55Zm.76-.92a.92.92,0,0,1,.12-.45.75.75,0,0,1,.32-.34.93.93,0,0,1,.47-.11.84.84,0,0,1,.65.26.93.93,0,0,1,.26.66.94.94,0,0,1-.26.68.89.89,0,0,1-.65.26,1,1,0,0,1-.46-.11.73.73,0,0,1-.33-.32,1.09,1.09,0,0,1-.12-.53Zm.48,0a.58.58,0,0,0,.13.41.39.39,0,0,0,.3.14.41.41,0,0,0,.31-.14.64.64,0,0,0,.12-.42.6.6,0,0,0-.12-.4.41.41,0,0,0-.31-.14.39.39,0,0,0-.3.14.56.56,0,0,0-.13.41Zm2.86.89V16a.69.69,0,0,1-.25.23.64.64,0,0,1-.33.08.59.59,0,0,1-.32-.08.43.43,0,0,1-.2-.22.88.88,0,0,1-.07-.39V14.48h.47v.83a3.51,3.51,0,0,0,0,.46.22.22,0,0,0,.1.13.23.23,0,0,0,.17,0,.43.43,0,0,0,.22-.06.33.33,0,0,0,.12-.17,1.6,1.6,0,0,0,0-.48v-.76H14v1.79Zm.9-1.79h.43v.26a.67.67,0,0,1,.23-.21.57.57,0,0,1,.32-.08.65.65,0,0,1,.51.24,1,1,0,0,1,.22.68,1,1,0,0,1-.22.7.66.66,0,0,1-.52.24.75.75,0,0,1-.26,0,1.11,1.11,0,0,1-.25-.21V17h-.46V14.48Zm.45.87a.66.66,0,0,0,.12.44.35.35,0,0,0,.28.15.33.33,0,0,0,.27-.14.62.62,0,0,0,.11-.43.7.7,0,0,0-.11-.42.32.32,0,0,0-.27-.13.36.36,0,0,0-.29.13A.64.64,0,0,0,15,15.35Z"/><path class="cls-3" d="M32.68,3.41c-3,6.44-6.45,12.54-12.52,16.3H3.58v.53h20.1c3.56.41,5.29-2.7,6.63-7.07l3.24-9.32.29.15-.37-1.11-1.08.37Z"/><path class="cls-4" d="M20.16,19.71H3.58v.53h20.1c3.56.41,5.29-2.7,6.63-7.07l3.24-9.32.29.15-.24-.75c-.08.24-.26.31-.41.41C28.62,16.25,26.78,18.61,20.16,19.71Z"/><path class="cls-2" d="M20.16,19.71H3.58v.53h20.1c3.56.41,5.29-2.7,6.63-7.07l3.24-9.32.29.15-.24-.75c-.08.24-.26.31-.41.41C28.62,16.25,26.78,18.61,20.16,19.71Z"/></svg>