<svg xmlns="http://www.w3.org/2000/svg" width="41.478" height="40.565" viewBox="0 0 41.478 40.565">
  <g id="setting_icon" transform="translate(0 0)">
    <g id="Group_75" data-name="Group 75">
      <g id="Group_68" data-name="Group 68" transform="translate(10.48 20.752)">
        <path id="Path_259" data-name="Path 259" d="M394.448,507.563a4.667,4.667,0,1,0,5.575,3.533A4.671,4.671,0,0,0,394.448,507.563Zm1.866,8.331a3.871,3.871,0,1,1,2.932-4.624A3.875,3.875,0,0,1,396.315,515.894Z" transform="translate(-390.8 -507.449)" fill="#777"/>
      </g>
      <g id="Group_69" data-name="Group 69" transform="translate(12.775 23.048)">
        <path id="Path_260" data-name="Path 260" d="M394.143,509a2.372,2.372,0,1,0,2.834,1.8A2.374,2.374,0,0,0,394.143,509Zm.865,3.852a1.576,1.576,0,1,1,1.193-1.882A1.577,1.577,0,0,1,395.007,512.848Z" transform="translate(-392.29 -508.938)" fill="#777"/>
      </g>
      <g id="Group_70" data-name="Group 70" transform="translate(0 10.273)">
        <path id="Path_261" data-name="Path 261" d="M414.294,513l-2.192-5.533-2.733,1.082a12.432,12.432,0,0,0-2.657-2.74l1.167-2.7-5.462-2.361-1.167,2.7a12.521,12.521,0,0,0-3.818-.059l-1.082-2.733-5.533,2.193,1.082,2.731a12.373,12.373,0,0,0-2.74,2.659l-2.7-1.167-2.361,5.462,2.7,1.167a12.468,12.468,0,0,0-.063,3.818L384,518.6l2.192,5.533,2.733-1.082a12.413,12.413,0,0,0,2.662,2.739l-1.167,2.7,5.462,2.363,1.167-2.7a12.417,12.417,0,0,0,3.818.062l1.083,2.731,5.533-2.192L406.4,526.02a12.51,12.51,0,0,0,2.739-2.662l2.7,1.167,2.363-5.462-2.7-1.167a12.417,12.417,0,0,0,.059-3.818ZM410.8,514.38a11.566,11.566,0,0,1-.054,3.19c-.04.27-.091.538-.15.8l.74.324,1.817.783-1.728,4-1.819-.788-.74-.319c-.154.224-.317.442-.484.658a11.709,11.709,0,0,1-2.284,2.224c-.219.16-.444.314-.675.456l1.026,2.591L402.4,529.91l-1.027-2.591c-.27.055-.539.1-.806.131a11.749,11.749,0,0,1-3.19-.056c-.27-.043-.536-.091-.8-.149l-.324.74-.783,1.819-4-1.732.788-1.816.319-.743c-.224-.151-.442-.313-.658-.479a11.821,11.821,0,0,1-2.226-2.287c-.157-.216-.311-.442-.455-.677l-2.591,1.027-1.606-4.054,2.591-1.027c-.054-.265-.1-.535-.131-.8a11.777,11.777,0,0,1,.055-3.186q.065-.4.15-.8l-2.559-1.107,1.734-4,1.814.788.743.319c.153-.224.313-.445.481-.657a11.6,11.6,0,0,1,2.287-2.226c.214-.162.442-.313.675-.459l-1.025-2.588,4.052-1.606,1.025,2.588c.267-.051.536-.1.806-.128a11.663,11.663,0,0,1,3.187.057c.268.039.538.091.8.148l.321-.738.786-1.82,4,1.731-1.105,2.557c.223.156.445.316.658.484a11.623,11.623,0,0,1,2.224,2.284c.163.219.313.445.459.675l2.588-1.026,1.606,4.054-2.588,1.025C410.724,513.845,410.772,514.113,410.8,514.38Z" transform="translate(-384.001 -500.65)" fill="#777"/>
      </g>
      <g id="Group_71" data-name="Group 71" transform="translate(31.128 7.666)">
        <path id="Path_262" data-name="Path 262" d="M405.245,498.991a1.343,1.343,0,1,0,1.6,1.016A1.344,1.344,0,0,0,405.245,498.991Zm.415,1.842a.546.546,0,1,1,.413-.652A.547.547,0,0,1,405.66,500.833Z" transform="translate(-404.197 -498.959)" fill="#777"/>
      </g>
      <g id="Group_72" data-name="Group 72" transform="translate(23.465)">
        <path id="Path_263" data-name="Path 263" d="M417.072,505.277l.166-3.782-1.749-.077a7.448,7.448,0,0,0-.683-1.879l1.292-1.179-2.559-2.794-1.288,1.182a7.416,7.416,0,0,0-1.811-.845l.077-1.749-3.782-.168-.077,1.751a7.267,7.267,0,0,0-1.879.683l-1.184-1.292-2.79,2.559,1.182,1.287a7.357,7.357,0,0,0-.849,1.813l-1.746-.077-.166,3.782,1.746.077a7.351,7.351,0,0,0,.686,1.879l-1.292,1.182,2.555,2.791,1.292-1.182a7.458,7.458,0,0,0,1.811.848l-.077,1.746,3.782.168.077-1.746a7.523,7.523,0,0,0,1.88-.687l1.178,1.292,2.794-2.554-1.182-1.292a7.348,7.348,0,0,0,.846-1.813Zm-2.355-.9a6.768,6.768,0,0,1-.214.788,6.884,6.884,0,0,1-.576,1.245,7.03,7.03,0,0,1-.469.664l.539.595.536.586-1.62,1.478-1.076-1.174a6.811,6.811,0,0,1-.707.407,6.506,6.506,0,0,1-1.287.465,6.934,6.934,0,0,1-.8.148l-.069,1.591-2.192-.1.071-1.591a6.687,6.687,0,0,1-.788-.219,6.452,6.452,0,0,1-1.247-.576,6.848,6.848,0,0,1-.667-.469l-.59.544-.586.533-1.478-1.617.581-.536.593-.542a6.374,6.374,0,0,1-.407-.7,6.62,6.62,0,0,1-.469-1.292,7.22,7.22,0,0,1-.145-.8l-1.591-.071.1-2.19,1.592.069a7.417,7.417,0,0,1,.214-.788,6.713,6.713,0,0,1,.58-1.242,6.453,6.453,0,0,1,.469-.667l-.544-.595-.532-.581,1.615-1.483.536.586.539.589c.23-.145.464-.285.707-.407a6.786,6.786,0,0,1,1.292-.465,6.045,6.045,0,0,1,.8-.143l.069-1.6,2.192.1-.071,1.6a5.818,5.818,0,0,1,.788.214,6.557,6.557,0,0,1,1.242.576,7.575,7.575,0,0,1,.669.467l.593-.539.583-.536,1.483,1.62-.586.532-.59.544a6.876,6.876,0,0,1,.407.707,6.619,6.619,0,0,1,.466,1.288,6.316,6.316,0,0,1,.143.8l1.6.071-.1,2.19Z" transform="translate(-399.225 -493.985)" fill="#777"/>
      </g>
      <g id="Group_73" data-name="Group 73" transform="translate(4.997 15.269)">
        <path id="Path_264" data-name="Path 264" d="M399.613,523.946a10.149,10.149,0,1,1,7.685-12.122A10.161,10.161,0,0,1,399.613,523.946Zm-4.265-19.03A9.353,9.353,0,1,0,406.522,512,9.365,9.365,0,0,0,395.349,504.915Z" transform="translate(-387.243 -503.892)" fill="#777"/>
      </g>
      <g id="Group_74" data-name="Group 74" transform="translate(27.614 4.191)">
        <path id="Path_265" data-name="Path 265" d="M407.849,506.323a4.868,4.868,0,1,1,3.685-5.815A4.872,4.872,0,0,1,407.849,506.323ZM405.9,497.6a4.071,4.071,0,1,0,4.863,3.083A4.075,4.075,0,0,0,405.9,497.6Z" transform="translate(-401.917 -496.704)" fill="#777"/>
      </g>
    </g>
  </g>
</svg>
