<svg xmlns="http://www.w3.org/2000/svg" width="189.048" height="103.343" viewBox="0 0 189.048 103.343">
  <g id="Essay_Context_infographic" data-name="Essay Context infographic" transform="translate(-24.046 -200.084)">
    <g id="Group_9" data-name="Group 9" transform="translate(24.046 200.084)">
      <path id="Path_198" data-name="Path 198" d="M208.917,208.758v29.279a49.916,49.916,0,0,1-49.86,49.859H39.379l11.715-32.788-19.912.92L51.675,210l.555-1.244Z" transform="translate(-22.501 -198.207)" fill="#f7f7f7"/>
      <path id="Path_199" data-name="Path 199" d="M202.4,213.118V237.1a44.554,44.554,0,0,1-44.553,44.554H42.688l10.9-30.516-16.78.777,17.274-38.794Z" transform="translate(-21.285 -197.264)" fill="#0f1d34" opacity="0.9"/>
      <path id="Path_200" data-name="Path 200" d="M96.185,281.651a80.782,80.782,0,0,1,4.576-10.439A79.44,79.44,0,0,1,122.676,237.1a79.448,79.448,0,0,1,34.111-21.915c1.4-.736,2.816-1.421,4.242-2.068H54.078L36.8,251.912l16.78-.777-10.9,30.516Z" transform="translate(-21.285 -197.264)" fill="#111f37" opacity="0.9"/>
      <g id="Group_2" data-name="Group 2" transform="translate(7.496 9.198)">
        <path id="Path_201" data-name="Path 201" d="M77.059,207.646,76.173,209l-.812,1.244L52.792,244.858H73.63L43.154,288.137l-2.408,3.416-7.21,10.233,3.652-10.233,1.217-3.416,11.714-32.789-19.911.92L50.7,210.243,51.257,209l.6-1.353Z" transform="translate(-30.207 -207.646)" fill="#efbf59"/>
        <g id="Group_1" data-name="Group 1" transform="translate(0 0.005)">
          <path id="Path_202" data-name="Path 202" d="M42.354,249.053l18.811,1.16L33.54,301.789l16.576-46.443-19.909.92L51.856,207.65H62.309Z" transform="translate(-30.208 -207.65)" fill="#cba34c"/>
        </g>
      </g>
      <g id="Group_3" data-name="Group 3" transform="translate(65.845 5.088)">
        <path id="Path_203" data-name="Path 203" d="M179.69,204.943H78.516a.338.338,0,1,1,0-.676H179.69a.338.338,0,1,1,0,.676Z" transform="translate(-78.178 -204.267)"/>
      </g>
      <g id="Group_4" data-name="Group 4" transform="translate(137.484 54.378)">
        <path id="Path_204" data-name="Path 204" d="M137.412,284.778a.338.338,0,1,1,0-.676c22.435,0,34.984-10.614,41.561-19.519a52.886,52.886,0,0,0,8.994-19.515.336.336,0,0,1,.393-.272.34.34,0,0,1,.272.394,53.648,53.648,0,0,1-9.115,19.8C172.847,274.015,160.129,284.778,137.412,284.778Z" transform="translate(-137.074 -244.789)"/>
      </g>
      <g id="Group_5" data-name="Group 5" transform="translate(111.543)">
        <path id="Path_205" data-name="Path 205" d="M160.087,200.76h-44a.338.338,0,1,1,0-.676h44a.338.338,0,0,1,0,.676Z" transform="translate(-115.747 -200.084)"/>
      </g>
      <g id="Group_6" data-name="Group 6" transform="translate(0 31.282)">
        <path id="Path_206" data-name="Path 206" d="M24.384,257.159a.337.337,0,0,1-.311-.47l13.021-30.682a.338.338,0,1,1,.622.264L24.9,256.46l16.676-.725a.33.33,0,0,1,.353.324.338.338,0,0,1-.324.353l-17.21.748Z" transform="translate(-24.046 -225.801)"/>
      </g>
      <g id="Group_7" data-name="Group 7" transform="translate(22.342 94.289)">
        <path id="Path_207" data-name="Path 207" d="M70.489,278.277H42.751a.338.338,0,1,1,0-.676H70.489a.338.338,0,1,1,0,.676Z" transform="translate(-42.413 -277.601)"/>
      </g>
      <g id="Group_8" data-name="Group 8" transform="translate(61.853 94.289)">
        <path id="Path_208" data-name="Path 208" d="M83.417,278.277H75.234a.338.338,0,1,1,0-.676h8.183a.338.338,0,1,1,0,.676Z" transform="translate(-74.896 -277.601)"/>
      </g>
      <text id="ESSAY" transform="translate(58.532 48.413)" fill="#fff" font-size="34" font-family="Roboto-Regular, Roboto"><tspan x="0" y="0">ESSAY</tspan></text>
      <text id="CONTEST" transform="translate(58.533 71.03)" fill="#efbf59" font-size="20" font-family="Roboto-Bold, Roboto" font-weight="700"><tspan x="0" y="0">CONTEST</tspan></text>
    </g>
  </g>
</svg>
