<svg xmlns="http://www.w3.org/2000/svg" width="30.259" height="41.223" viewBox="0 0 30.259 41.223">
  <g id="entry_icon" transform="translate(0 0)">
    <g id="Group_62" data-name="Group 62" transform="translate(0)">
      <g id="Group_48" data-name="Group 48" transform="translate(24.589 34.273)">
        <path id="Path_244" data-name="Path 244" d="M205.893,516.009l-1.384,1.349v-1.349Z" transform="translate(-204.509 -516.009)" fill="#777"/>
      </g>
      <g id="Group_49" data-name="Group 49">
        <path id="Path_245" data-name="Path 245" d="M209.2,496.324v-.781h-3.357a2.2,2.2,0,0,0-4.316,0H198.17v.781h-9.615V535h30.259V496.324Zm-10.169.079h3.386a1.313,1.313,0,0,1,0-.86,1.339,1.339,0,0,1,2.537,0,1.313,1.313,0,0,1,0,.86h3.386v2.927H199.03Zm10.169,3.785v-.859h5.957v27.856h-2.871v2.8H192.212V499.33h5.957v.859Zm5.33,27.857-1.384,1.349v-1.349Zm3.425,6.09H189.415V497.184h8.755v1.286h-6.817v32.373H212.89l3.126-3.047V498.47H209.2v-1.286h8.755Z" transform="translate(-188.555 -493.772)" fill="#777"/>
      </g>
      <g id="Group_51" data-name="Group 51" transform="translate(5.942 11.57)">
        <g id="Group_50" data-name="Group 50">
          <path id="Path_246" data-name="Path 246" d="M195.9,504.772H192.41v-3.493H195.9Zm-2.633-.86h1.772v-1.772H193.27Z" transform="translate(-192.41 -501.279)" fill="#777"/>
        </g>
      </g>
      <g id="Group_53" data-name="Group 53" transform="translate(5.942 19.397)">
        <g id="Group_52" data-name="Group 52">
          <path id="Path_247" data-name="Path 247" d="M195.9,509.85H192.41v-3.493H195.9Zm-2.633-.86h1.772v-1.774H193.27Z" transform="translate(-192.41 -506.357)" fill="#777"/>
        </g>
      </g>
      <g id="Group_55" data-name="Group 55" transform="translate(5.942 27.222)">
        <g id="Group_54" data-name="Group 54">
          <path id="Path_248" data-name="Path 248" d="M195.9,514.927H192.41v-3.493H195.9Zm-2.633-.86h1.772v-1.773H193.27Z" transform="translate(-192.41 -511.434)" fill="#777"/>
        </g>
      </g>
      <g id="Group_57" data-name="Group 57" transform="translate(11.315 14.203)">
        <g id="Group_56" data-name="Group 56">
          <rect id="Rectangle_870" data-name="Rectangle 870" width="12.196" height="0.86" fill="#777"/>
        </g>
      </g>
      <g id="Group_59" data-name="Group 59" transform="translate(11.315 22.029)">
        <g id="Group_58" data-name="Group 58">
          <rect id="Rectangle_871" data-name="Rectangle 871" width="12.196" height="0.86" fill="#777"/>
        </g>
      </g>
      <g id="Group_61" data-name="Group 61" transform="translate(11.315 29.856)">
        <g id="Group_60" data-name="Group 60">
          <rect id="Rectangle_872" data-name="Rectangle 872" width="12.196" height="0.86" fill="#777"/>
        </g>
      </g>
    </g>
  </g>
</svg>
