<svg xmlns="http://www.w3.org/2000/svg" width="28.618" height="45.529" viewBox="0 0 28.618 45.529">
  <g id="light_icon" transform="translate(0 0)">
    <g id="Group_66" data-name="Group 66">
      <path id="Path_251" data-name="Path 251" d="M104.558,492.741a14.2,14.2,0,0,0-10.72,3.846,14.307,14.307,0,0,0-2.686,17.437,49.9,49.9,0,0,1,3.331,6.893l2.424,6.395a1.289,1.289,0,0,0,1.2.826h11.046a1.286,1.286,0,0,0,1.2-.826l2.526-6.661a46.411,46.411,0,0,1,3.187-6.552,14.308,14.308,0,0,0-11.507-21.356Zm10.658,20.872a47.355,47.355,0,0,0-3.254,6.689l-2.526,6.661a.3.3,0,0,1-.284.2H98.106a.3.3,0,0,1-.284-.2L95.4,520.57A51.289,51.289,0,0,0,92,513.543a13.331,13.331,0,0,1,11.617-19.853c.29,0,.583.009.875.028a13.333,13.333,0,0,1,10.72,19.9Z" transform="translate(-89.321 -492.712)" fill="#777"/>
      <path id="Path_252" data-name="Path 252" d="M106.212,516.7H95.206a.489.489,0,0,0,0,.979h11.006a.489.489,0,1,0,0-.979Z" transform="translate(-86.4 -479.727)" fill="#777"/>
      <path id="Path_253" data-name="Path 253" d="M104.725,518.339H95.92a.489.489,0,0,0,0,.979h8.805a.489.489,0,1,0,0-.979Z" transform="translate(-86.014 -478.84)" fill="#777"/>
      <path id="Path_254" data-name="Path 254" d="M103.844,519.978h-7.5a.489.489,0,0,0,0,.979h7.5a.489.489,0,0,0,0-.979Z" transform="translate(-85.785 -477.953)" fill="#777"/>
      <path id="Path_255" data-name="Path 255" d="M100.705,521.617H97.851a.489.489,0,1,0,0,.977h2.854a.489.489,0,1,0,0-.977Z" transform="translate(-84.968 -477.066)" fill="#777"/>
      <g id="Group_65" data-name="Group 65" transform="translate(7.483 18.109)">
        <path id="Path_256" data-name="Path 256" d="M105.882,504.461a1.957,1.957,0,0,0-1.942,1.786.793.793,0,0,0-.011.16v.969h-1.247a1.949,1.949,0,1,0-3.362,0H98.069v-.969a.521.521,0,0,0-.009-.122,1.91,1.91,0,0,0-.778-1.438,1.945,1.945,0,1,0-1.159,3.506h.968v12.934a.489.489,0,0,0,.979,0V508.354h5.86v12.934a.489.489,0,0,0,.979,0V508.354h.974a1.947,1.947,0,0,0,0-3.893Zm-8.792,2.916h-.968a.969.969,0,1,1,.968-.969Zm3.909,0a.969.969,0,1,1,.974-.969A.971.971,0,0,1,101,507.377Zm4.883,0h-.974v-.969a.971.971,0,1,1,.974.969Z" transform="translate(-94.176 -504.461)" fill="#777"/>
      </g>
      <path id="Path_257" data-name="Path 257" d="M100.515,505.627a.793.793,0,0,0-.011.16v-.18Z" transform="translate(-83.268 -485.732)" fill="#777"/>
      <path id="Path_258" data-name="Path 258" d="M96.705,505.632v.142a.52.52,0,0,0-.009-.122Z" transform="translate(-85.329 -485.718)" fill="#777"/>
    </g>
  </g>
</svg>
