<svg xmlns="http://www.w3.org/2000/svg" width="35.543" height="41.229" viewBox="0 0 35.543 41.229">
  <g id="time_icon" transform="translate(0 0)">
    <path id="Path_249" data-name="Path 249" d="M505.689,497.973a17.376,17.376,0,1,0,17.376,17.375A17.375,17.375,0,0,0,505.689,497.973Zm0,33.625a16.249,16.249,0,1,1,16.25-16.25A16.268,16.268,0,0,1,505.689,531.6Z" transform="translate(-488.314 -491.496)" fill="#777"/>
    <path id="Path_250" data-name="Path 250" d="M505,500.287h-.564A13.808,13.808,0,1,0,518.244,514.1v-.562H505Z" transform="translate(-487.061 -490.243)" fill="#777"/>
    <rect id="Rectangle_873" data-name="Rectangle 873" width="11.182" height="5.256" transform="translate(11.785)" fill="#777"/>
    <rect id="Rectangle_874" data-name="Rectangle 874" width="3.989" height="3.802" transform="translate(30.043 10.337) rotate(-40.094)" fill="#777"/>
  </g>
</svg>
